<?xml version="1.0" encoding="UTF-8"?>
<svg xmlns="http://www.w3.org/2000/svg" xmlns:xlink="http://www.w3.org/1999/xlink" viewBox="0 0 50 50" width="50px" height="50px">
<g id="surface11434601">
<path style=" stroke:none;fill-rule:nonzero;fill:rgb(90.588236%,29.803923%,23.529412%);fill-opacity:1;" d="M 10 2 C 8.347656 2 7 3.347656 7 5 L 7 45 C 7 46.652344 8.347656 48 10 48 L 40 48 C 41.652344 48 43 46.652344 43 45 L 43 5 C 43 3.347656 41.652344 2 40 2 Z M 35.738281 6 L 37 6 L 39.730469 13.5 L 38.128906 13.5 L 37.40625 11.5 L 35.335938 11.5 L 34.609375 13.5 L 33.011719 13.5 Z M 36.371094 8.65625 L 35.882812 10 L 36.859375 10 Z M 22 20 C 23.65625 20 25 22.34375 25 24 C 25 22.34375 26.34375 20 28 20 C 29.65625 20 31 21.34375 31 23 C 31 28.125 25 31 25 31 C 25 31 19 28 19 23 C 19 21.34375 20.34375 20 22 20 Z M 10.269531 36.5 L 11.871094 36.5 L 12.59375 38.5 L 14.664062 38.5 L 15.390625 36.5 L 16.988281 36.5 L 14.261719 44 L 13 44 Z M 13.140625 40 L 13.628906 41.34375 L 14.117188 40 Z M 13.140625 40 "/>
</g>
</svg>
