<svg fill="#000000" xmlns="http://www.w3.org/2000/svg"  viewBox="0 0 50 50" width="50px" height="50px"><path d="M 10 2 C 8.347656 2 7 3.347656 7 5 L 7 45 C 7 46.652344 8.347656 48 10 48 L 40 48 C 41.652344 48 43 46.652344 43 45 L 43 5 C 43 3.347656 41.652344 2 40 2 Z M 35.738281 6 L 37 6 L 39.730469 13.5 L 38.128906 13.5 L 37.40625 11.5 L 35.335938 11.5 L 34.609375 13.5 L 33.011719 13.5 Z M 36.371094 8.65625 L 35.882813 10 L 36.859375 10 Z M 25 19 C 25 19 29.996094 22.710938 30 25.3125 C 30 25.347656 29.992188 25.378906 29.988281 25.414063 C 29.992188 25.441406 30 25.472656 30 25.5 C 30 26.882813 28.882813 28 27.5 28 C 26.742188 28 26.0625 27.660156 25.605469 27.125 C 26 28.367188 26.636719 30.28125 27 31 L 23.011719 31 C 23.382813 30.269531 24.035156 28.308594 24.433594 27.078125 C 23.972656 27.640625 23.28125 28 22.5 28 C 21.117188 28 20 26.882813 20 25.5 C 20 25.472656 20.007813 25.449219 20.007813 25.421875 C 20.007813 25.390625 20 25.363281 20 25.328125 C 19.996094 22.722656 25 19 25 19 Z M 10.269531 36.5 L 11.871094 36.5 L 12.59375 38.5 L 14.664063 38.5 L 15.390625 36.5 L 16.988281 36.5 L 14.261719 44 L 13 44 Z M 13.140625 40 L 13.628906 41.34375 L 14.117188 40 Z"/></svg>