<svg fill="#000000" xmlns="http://www.w3.org/2000/svg"  viewBox="0 0 50 50" width="50px" height="50px"><path d="M 10 2 C 8.347656 2 7 3.347656 7 5 L 7 45 C 7 46.652344 8.347656 48 10 48 L 40 48 C 41.652344 48 43 46.652344 43 45 L 43 5 C 43 3.347656 41.652344 2 40 2 Z M 35.738281 6 L 37 6 L 39.730469 13.5 L 38.128906 13.5 L 37.40625 11.5 L 35.335938 11.5 L 34.609375 13.5 L 33.011719 13.5 Z M 36.371094 8.65625 L 35.882813 10 L 36.859375 10 Z M 25.003906 19 C 26.386719 19 27.503906 20.117188 27.503906 21.5 C 27.503906 22.511719 26.164063 24.1875 25.445313 25.011719 C 26.140625 24.285156 27.507813 23 28.5 23 C 29.882813 23 31 24.117188 31 25.5 C 31 26.882813 29.882813 28 28.5 28 C 27.355469 28 25.703125 26.285156 25.171875 25.699219 L 25.25 26 C 25.25 26 26.445313 29.902344 27 31 L 23.011719 31 C 23.566406 29.902344 24.765625 26.027344 24.765625 26.027344 L 24.84375 25.675781 C 24.335938 26.238281 22.660156 28 21.5 28 C 20.117188 28 19 26.882813 19 25.5 C 19 24.117188 20.117188 23 21.5 23 C 22.589844 23 24.132813 24.550781 24.738281 25.207031 C 24.09375 24.488281 22.503906 22.601563 22.503906 21.5 C 22.503906 20.117188 23.625 19 25.003906 19 Z M 10.269531 36.5 L 11.871094 36.5 L 12.59375 38.5 L 14.664063 38.5 L 15.390625 36.5 L 16.988281 36.5 L 14.261719 44 L 13 44 Z M 13.140625 40 L 13.628906 41.34375 L 14.117188 40 Z"/></svg>