<?xml version="1.0" encoding="UTF-8"?>
<svg xmlns="http://www.w3.org/2000/svg" xmlns:xlink="http://www.w3.org/1999/xlink" viewBox="0 0 50 50" width="50px" height="50px">
<g id="surface11488465">
<path style=" stroke:none;fill-rule:nonzero;fill:rgb(90.588236%,29.803923%,23.529412%);fill-opacity:1;" d="M 10 2 C 8.347656 2 7 3.347656 7 5 L 7 45 C 7 46.652344 8.347656 48 10 48 L 40 48 C 41.652344 48 43 46.652344 43 45 L 43 5 C 43 3.347656 41.652344 2 40 2 Z M 13.5 6 C 14.878906 6 16 7.121094 16 8.5 L 16 10.5 C 16 11.03125 15.832031 11.519531 15.550781 11.921875 L 16.933594 14 L 15.734375 14 L 14.8125 12.621094 C 14.429688 12.855469 13.980469 13 13.5 13 C 12.121094 13 11 11.878906 11 10.5 L 11 8.5 C 11 7.121094 12.121094 6 13.5 6 Z M 34.5 6 C 35.328125 6 36 7.171875 36 8 C 36 7.171875 36.671875 6 37.5 6 C 38.328125 6 39 6.671875 39 7.5 C 39 10.0625 36 12 36 12 C 36 12 33 10 33 7.5 C 33 6.671875 33.671875 6 34.5 6 Z M 13.5 7 C 12.675781 7 12 7.675781 12 8.5 L 12 10.5 C 12 11.324219 12.675781 12 13.5 12 C 14.324219 12 15 11.324219 15 10.5 L 15 8.5 C 15 7.675781 14.324219 7 13.5 7 Z M 27 12 L 27.003906 12 C 27.4375 12.003906 27.820312 12.285156 27.953125 12.699219 C 28.097656 13.136719 28.566406 14 29 14 C 29.78125 14 30.152344 13.46875 30.15625 13.464844 C 30.394531 13.089844 30.851562 12.917969 31.28125 13.039062 C 31.707031 13.164062 32 13.554688 32 14 L 32 18.734375 L 35.867188 25.503906 C 36.003906 25.742188 36.035156 26.027344 35.957031 26.289062 C 35.878906 26.550781 35.691406 26.773438 35.449219 26.894531 L 34 27.617188 L 34 31 C 34 31.519531 33.597656 31.953125 33.078125 31.996094 C 33.050781 32 30.167969 32.246094 28.707031 33.707031 C 28.316406 34.097656 27.683594 34.097656 27.292969 33.707031 C 26.902344 33.316406 26.902344 32.683594 27.292969 32.292969 C 28.679688 30.90625 30.792969 30.347656 32 30.128906 L 32 27 C 32 26.621094 32.214844 26.277344 32.550781 26.105469 L 33.609375 25.578125 L 30.4375 20.03125 C 27.945312 20.3125 26 22.433594 26 25 L 26 30 C 26 33.308594 23.308594 36 20 36 L 17.4375 36 C 16.417969 36 15.417969 35.488281 14.75 34.632812 C 14.074219 33.757812 13.84375 32.644531 14.117188 31.582031 C 14.382812 30.554688 15.144531 29.691406 16.113281 29.28125 L 16.671875 26.214844 C 17.332031 22.570312 19.277344 19.925781 22 18.722656 L 22 14 C 22 13.554688 22.292969 13.164062 22.71875 13.039062 C 23.152344 12.914062 23.605469 13.089844 23.84375 13.464844 C 23.871094 13.503906 24.238281 14 25 14 C 25.433594 14 25.90625 13.132812 26.046875 12.691406 C 26.183594 12.28125 26.566406 12 27 12 Z M 27 15.015625 C 26.53125 15.546875 25.878906 16 25 16 C 24.636719 16 24.300781 15.945312 24 15.859375 L 24 18.125 C 24.488281 18.046875 24.992188 18 25.511719 18 L 30 18 L 30 15.859375 C 29.699219 15.945312 29.363281 16 29 16 C 28.121094 16 27.46875 15.546875 27 15.015625 Z M 25.511719 20 C 21.957031 20 19.390625 22.457031 18.640625 26.566406 L 18.191406 29.019531 C 18.792969 29.101562 19.351562 29.308594 19.808594 29.664062 C 20.554688 30.242188 20.96875 31.109375 20.96875 32.109375 C 20.96875 32.660156 20.519531 33.109375 19.96875 33.109375 C 19.414062 33.109375 18.96875 32.660156 18.96875 32.109375 C 18.96875 31.734375 18.835938 31.441406 18.582031 31.246094 C 18.230469 30.972656 17.671875 30.902344 17.082031 31.054688 C 16.59375 31.179688 16.183594 31.59375 16.054688 32.082031 C 15.894531 32.710938 16.160156 33.183594 16.332031 33.40625 C 16.617188 33.773438 17.039062 34 17.4375 34 L 20 34 C 22.207031 34 24 32.207031 24 30 L 24 25 C 24 23.042969 24.808594 21.273438 26.109375 20 Z M 30 23 C 30.550781 23 31 23.449219 31 24 C 31 24.550781 30.550781 25 30 25 C 29.449219 25 29 24.550781 29 24 C 29 23.449219 29.449219 23 30 23 Z M 33.066406 36 L 34.265625 36 L 35.1875 37.378906 C 35.570312 37.144531 36.019531 37 36.5 37 C 37.878906 37 39 38.121094 39 39.5 L 39 41.5 C 39 42.878906 37.878906 44 36.5 44 C 35.121094 44 34 42.878906 34 41.5 L 34 39.5 C 34 38.96875 34.167969 38.480469 34.449219 38.078125 Z M 14 38 C 14 38 17 39.9375 17 42.5 C 17 43.328125 16.328125 44 15.5 44 C 14.671875 44 14 42.828125 14 42 C 14 42.828125 13.328125 44 12.5 44 C 11.671875 44 11 43.328125 11 42.5 C 11 40 14 38 14 38 Z M 36.5 38 C 35.675781 38 35 38.675781 35 39.5 L 35 41.5 C 35 42.324219 35.675781 43 36.5 43 C 37.324219 43 38 42.324219 38 41.5 L 38 39.5 C 38 38.675781 37.324219 38 36.5 38 Z M 36.5 38 "/>
</g>
</svg>
