<?xml version="1.0" encoding="UTF-8"?>
<svg xmlns="http://www.w3.org/2000/svg" xmlns:xlink="http://www.w3.org/1999/xlink" viewBox="0 0 50 50" width="50px" height="50px">
<g id="surface11481043">
<path style=" stroke:none;fill-rule:nonzero;fill:rgb(0%,0%,0%);fill-opacity:1;" d="M 10 2 C 8.347656 2 7 3.347656 7 5 L 7 45 C 7 46.652344 8.347656 48 10 48 L 40 48 C 41.652344 48 43 46.652344 43 45 L 43 5 C 43 3.347656 41.652344 2 40 2 Z M 36 5.875 C 36.621094 5.875 37.125 6.378906 37.125 7 C 37.125 7.46875 36.933594 7.960938 36.714844 8.382812 C 37.082031 8.113281 37.535156 7.875 38 7.875 C 38.621094 7.875 39.125 8.378906 39.125 9 C 39.125 9.621094 38.621094 10.125 38 10.125 C 37.34375 10.125 36.699219 9.804688 36.308594 9.5625 C 36.550781 10.328125 36.980469 11.628906 37.171875 12 L 34.8125 12 C 35.007812 11.628906 35.449219 10.316406 35.703125 9.554688 C 35.3125 9.800781 34.675781 10.125 34 10.125 C 33.382812 10.125 32.875 9.621094 32.875 9 C 32.875 8.378906 33.378906 7.875 34 7.875 C 34.449219 7.875 34.929688 8.140625 35.316406 8.425781 C 35.085938 7.988281 34.875 7.464844 34.875 7 C 34.875 6.378906 35.378906 5.875 36 5.875 Z M 13.5 6 C 14.878906 6 16 7.121094 16 8.5 L 16 10.5 C 16 11.03125 15.832031 11.519531 15.550781 11.921875 L 16.933594 14 L 15.734375 14 L 14.8125 12.621094 C 14.429688 12.855469 13.980469 13 13.5 13 C 12.121094 13 11 11.878906 11 10.5 L 11 8.5 C 11 7.121094 12.121094 6 13.5 6 Z M 13.5 7 C 12.675781 7 12 7.675781 12 8.5 L 12 10.5 C 12 11.324219 12.675781 12 13.5 12 C 14.324219 12 15 11.324219 15 10.5 L 15 8.5 C 15 7.675781 14.324219 7 13.5 7 Z M 27 12 L 27.003906 12 C 27.4375 12.003906 27.820312 12.285156 27.953125 12.699219 C 28.097656 13.136719 28.566406 14 29 14 C 29.78125 14 30.152344 13.472656 30.15625 13.464844 C 30.394531 13.089844 30.851562 12.914062 31.28125 13.039062 C 31.707031 13.164062 32 13.554688 32 14 L 32 18.734375 L 35.867188 25.503906 C 36.003906 25.742188 36.035156 26.023438 35.957031 26.289062 C 35.878906 26.550781 35.691406 26.773438 35.449219 26.894531 L 34 27.617188 L 34 31 C 34 31.519531 33.597656 31.953125 33.078125 31.996094 C 33.050781 32 30.167969 32.246094 28.707031 33.707031 C 28.511719 33.902344 28.257812 34 28 34 C 27.742188 34 27.488281 33.902344 27.292969 33.707031 C 26.902344 33.316406 26.902344 32.683594 27.292969 32.292969 C 28.679688 30.90625 30.792969 30.347656 32 30.128906 L 32 27 C 32 26.621094 32.214844 26.277344 32.550781 26.105469 L 33.609375 25.578125 L 30.453125 20.054688 C 27.953125 20.332031 26 22.429688 26 25 L 26 30 C 26 33.308594 23.308594 36 20 36 L 17.4375 36 C 16.417969 36 15.414062 35.488281 14.75 34.632812 C 14.257812 33.992188 14.003906 33.222656 14.011719 32.441406 C 14.015625 32.328125 14.027344 32.210938 14.046875 32.097656 C 14.050781 32.078125 14.050781 32.058594 14.054688 32.035156 C 14.292969 30.90625 15.300781 30.050781 16.5 30.050781 C 17.878906 30.050781 19 31.171875 19 32.550781 C 19 33.105469 19.449219 33.550781 20 33.550781 C 20.554688 33.550781 21 33.105469 21 32.550781 C 21 30.070312 18.984375 28.050781 16.5 28.050781 C 16.445312 28.050781 16.390625 28.066406 16.335938 28.070312 L 16.671875 26.214844 C 17.335938 22.570312 19.28125 19.925781 22 18.726562 L 22 14 C 22 13.554688 22.296875 13.164062 22.722656 13.039062 C 23.152344 12.910156 23.609375 13.089844 23.847656 13.464844 C 23.875 13.503906 24.238281 14 25 14 C 25.433594 14 25.90625 13.136719 26.046875 12.691406 C 26.183594 12.28125 26.566406 12 27 12 Z M 27 15.015625 C 26.53125 15.550781 25.878906 16 25 16 C 24.636719 16 24.300781 15.945312 24 15.859375 L 24 18.125 C 24.488281 18.046875 24.992188 18 25.511719 18 L 30 18 L 30 15.859375 C 29.699219 15.945312 29.363281 16 29 16 C 28.121094 16 27.46875 15.550781 27 15.015625 Z M 30 23 C 30.550781 23 31 23.449219 31 24 C 31 24.550781 30.550781 25 30 25 C 29.449219 25 29 24.550781 29 24 C 29 23.449219 29.449219 23 30 23 Z M 33.066406 36 L 34.265625 36 L 35.1875 37.378906 C 35.570312 37.144531 36.019531 37 36.5 37 C 37.878906 37 39 38.121094 39 39.5 L 39 41.5 C 39 42.878906 37.878906 44 36.5 44 C 35.121094 44 34 42.878906 34 41.5 L 34 39.5 C 34 38.96875 34.167969 38.480469 34.449219 38.078125 Z M 12.8125 38 L 15.171875 38 C 14.980469 38.371094 14.550781 39.671875 14.308594 40.4375 C 14.699219 40.195312 15.34375 39.875 16 39.875 C 16.621094 39.875 17.125 40.378906 17.125 41 C 17.125 41.621094 16.621094 42.125 16 42.125 C 15.535156 42.125 15.082031 41.886719 14.714844 41.621094 C 14.933594 42.039062 15.125 42.53125 15.125 43 C 15.125 43.621094 14.621094 44.125 14 44.125 C 13.378906 44.125 12.875 43.621094 12.875 43 C 12.875 42.535156 13.085938 42.011719 13.316406 41.574219 C 12.929688 41.859375 12.449219 42.125 12 42.125 C 11.378906 42.125 10.875 41.621094 10.875 41 C 10.875 40.378906 11.378906 39.875 12 39.875 C 12.675781 39.875 13.3125 40.199219 13.699219 40.441406 C 13.449219 39.683594 13.007812 38.375 12.8125 38 Z M 36.5 38 C 35.675781 38 35 38.675781 35 39.5 L 35 41.5 C 35 42.324219 35.675781 43 36.5 43 C 37.324219 43 38 42.324219 38 41.5 L 38 39.5 C 38 38.675781 37.324219 38 36.5 38 Z M 36.5 38 "/>
</g>
</svg>
