<svg fill="#000000" xmlns="http://www.w3.org/2000/svg"  viewBox="0 0 24 24" width="48px" height="48px"><path d="M 11.191406 0.97265625 L 10.390625 4.859375 L 6.7539062 7.9375 L 6.8457031 7.8671875 C 6.2470184 8.2663106 6 8.9777778 6 9.5 L 6 19 C 6 19.522222 6.1913289 20.05461 6.5683594 20.431641 C 6.9453899 20.808671 7.4777778 21 8 21 L 16.599609 21 C 17.280334 21 18.102465 20.62856 18.404297 19.830078 L 21.78125 13.074219 C 21.82637 12.997559 21.914981 12.915212 21.935547 12.853516 C 22.032372 12.563033 22 12.450391 22 12.400391 L 22 10 C 22 9.4777778 21.808671 8.9453899 21.431641 8.5683594 C 21.05461 8.1913289 20.522222 8 20 8 L 15.433594 8 C 15.71552 7.1257881 16 5.9985164 16 4.9003906 C 16 3.1432478 14.919879 1.9921659 13.947266 1.5058594 C 12.974653 1.0195529 12.033203 1 12.033203 1 L 11.191406 0.97265625 z M 12.769531 3.21875 C 12.900789 3.259463 12.915287 3.2261999 13.052734 3.2949219 C 13.580121 3.5586153 14 3.8575335 14 4.9003906 C 14 6.2082338 13.076172 8.6152344 13.076172 8.6152344 L 12.5 10 L 20 10 L 20 12.162109 L 16.582031 19 L 8 19 L 8 9.5019531 L 8 9.5 L 8.0019531 9.5 L 12.208984 5.9394531 L 12.769531 3.21875 z M 2 8 L 2 21 L 4 21 L 4 8 L 2 8 z"/></svg>