<?xml version="1.0" encoding="UTF-8"?>
<svg xmlns="http://www.w3.org/2000/svg" xmlns:xlink="http://www.w3.org/1999/xlink" viewBox="0 0 50 50" width="50px" height="50px">
<g id="surface6080486">
<rect x="0" y="0" width="50" height="50" style="fill:rgb(79.607844%,94.509804%,69.803923%);fill-opacity:1;stroke:none;"/>
<path style=" stroke:none;fill-rule:nonzero;fill:rgb(100%,100%,100%);fill-opacity:1;" d="M 0 7 L 0 9.914062 C 6.707031 15.710938 20.53125 27.65625 21.664062 28.644531 C 23.074219 29.871094 24.464844 30.003906 25 30.003906 C 25.535156 30.003906 26.925781 29.871094 28.335938 28.644531 C 29.425781 27.695312 42.785156 16.035156 50 9.730469 L 50 7 Z M 50 12.382812 C 42.589844 18.855469 30.671875 29.253906 29.644531 30.148438 C 27.730469 31.816406 25.757812 31.996094 25 31.996094 C 24.242188 31.996094 22.269531 31.816406 20.355469 30.144531 C 19.289062 29.222656 7.042969 18.640625 0 12.550781 L 0 43 L 50 43 Z M 50 12.382812 "/>
</g>
</svg>
