<?xml version="1.0" encoding="UTF-8"?>
<svg xmlns="http://www.w3.org/2000/svg" xmlns:xlink="http://www.w3.org/1999/xlink" viewBox="0 0 50 50" width="50px" height="50px">
<g id="surface11340380">
<path style=" stroke:none;fill-rule:nonzero;fill:rgb(90.588236%,29.803923%,23.529412%);fill-opacity:1;" d="M 10 2 C 8.347656 2 7 3.347656 7 5 L 7 45 C 7 46.652344 8.347656 48 10 48 L 40 48 C 41.652344 48 43 46.652344 43 45 L 43 5 C 43 3.347656 41.652344 2 40 2 Z M 36 5 L 39 9 L 36 13 L 33 9 Z M 11 6 L 12 6 L 12 9.0625 L 14.625 6 L 15.941406 6 L 13.5 8.851562 L 16.265625 13 L 15.066406 13 L 12.824219 9.640625 L 12 10.601562 L 12 13 L 11 13 Z M 26 11 C 26.460938 11 26.863281 11.316406 26.972656 11.765625 C 27.296875 13.121094 28.183594 15 29 15 C 30.378906 15 31.089844 13.585938 31.097656 13.570312 C 31.296875 13.148438 31.761719 12.917969 32.21875 13.023438 C 32.675781 13.125 33 13.53125 33 14 L 33 19.765625 L 35.894531 25.550781 C 36.140625 26.046875 35.941406 26.648438 35.449219 26.894531 L 34 27.617188 L 34 31 C 34 31.242188 33.914062 31.476562 33.753906 31.65625 C 33.667969 31.753906 31.660156 34 28 34 C 27.445312 34 27 33.550781 27 33 C 27 32.449219 27.445312 32 28 32 C 30.117188 32 31.472656 31.035156 32 30.578125 L 32 29.699219 C 31.492188 29.886719 30.921875 30 30.332031 30 C 28.488281 30 28 28.847656 28 28.167969 C 28 27.558594 28.628906 27.007812 29.324219 27.007812 C 29.488281 27.007812 29.628906 27.128906 29.65625 27.292969 C 29.679688 27.457031 29.578125 27.613281 29.421875 27.660156 C 29.222656 27.71875 29.253906 27.976562 29.261719 28.003906 C 29.269531 28.058594 29.320312 28.332031 29.605469 28.332031 C 29.875 28.332031 30.328125 28.332031 30.777344 27.78125 C 31.03125 27.371094 31.792969 26.417969 32.546875 26.109375 C 32.550781 26.105469 32.550781 26.105469 32.554688 26.105469 L 33.65625 25.550781 L 31.382812 21 L 29.125 20.992188 C 29.085938 20.996094 29.042969 21 29 21 L 28.859375 21 C 27.265625 21.113281 26 22.445312 26 24.070312 L 26 29 C 26 32.859375 22.859375 36 19 36 L 18.171875 36 C 15.945312 36 14.117188 34.335938 14.003906 32.214844 C 13.949219 31.101562 14.335938 30.050781 15.097656 29.246094 C 15.851562 28.453125 16.90625 28 18 28 L 18 24 C 18 22.863281 18.378906 21.839844 19 21.011719 C 19 21.007812 19 21.003906 19 21 L 19 14 C 19 13.53125 19.324219 13.125 19.78125 13.023438 C 20.242188 12.921875 20.703125 13.148438 20.902344 13.570312 C 20.929688 13.621094 21.625 15 23 15 C 23.808594 15 24.714844 13.089844 25.027344 11.769531 C 25.136719 11.320312 25.535156 11 26 11 Z M 26 14.757812 C 25.367188 15.902344 24.394531 17 23 17 C 22.207031 17 21.542969 16.78125 21 16.46875 L 21 19.433594 C 21.632812 19.15625 22.332031 19 23.078125 19 L 28.796875 19 C 28.890625 18.996094 28.984375 18.992188 29.078125 18.992188 L 31 18.996094 L 31 16.464844 C 30.457031 16.777344 29.792969 17 29 17 C 27.605469 17 26.632812 15.902344 26 14.757812 Z M 23.078125 21 C 21.351562 21 20 22.316406 20 24 L 20 29 C 20 29.550781 19.554688 30 19 30 L 18 30 C 17.445312 30 16.933594 30.21875 16.550781 30.625 C 16.167969 31.023438 15.976562 31.550781 16.003906 32.109375 C 16.058594 33.148438 17.027344 34 18.171875 34 L 19 34 C 21.757812 34 24 31.757812 24 29 L 24 24.074219 C 24 22.917969 24.386719 21.855469 25.035156 21 Z M 30 23 C 30.550781 23 31 23.449219 31 24 C 31 24.550781 30.550781 25 30 25 C 29.449219 25 29 24.550781 29 24 C 29 23.449219 29.449219 23 30 23 Z M 14 37 L 17 41 L 14 45 L 11 41 Z M 33.734375 37 L 34.933594 37 L 37.175781 40.359375 L 38 39.398438 L 38 37 L 39 37 L 39 44 L 38 44 L 38 40.9375 L 35.375 44 L 34.058594 44 L 36.5 41.152344 Z M 33.734375 37 "/>
</g>
</svg>
