<svg fill="#000000" xmlns="http://www.w3.org/2000/svg"  viewBox="0 0 50 50" width="50px" height="50px"><path d="M 10 2 C 8.347656 2 7 3.347656 7 5 L 7 45 C 7 46.652344 8.347656 48 10 48 L 40 48 C 41.652344 48 43 46.652344 43 45 L 43 5 C 43 3.347656 41.652344 2 40 2 Z M 36 5.875 C 36.621094 5.875 37.125 6.378906 37.125 7 C 37.125 7.46875 36.933594 7.960938 36.714844 8.382813 C 37.082031 8.113281 37.535156 7.875 38 7.875 C 38.621094 7.875 39.125 8.378906 39.125 9 C 39.125 9.621094 38.621094 10.125 38 10.125 C 37.34375 10.125 36.699219 9.804688 36.308594 9.5625 C 36.550781 10.328125 36.980469 11.628906 37.171875 12 L 34.8125 12 C 35.007813 11.628906 35.449219 10.316406 35.703125 9.554688 C 35.3125 9.800781 34.675781 10.125 34 10.125 C 33.382813 10.125 32.875 9.621094 32.875 9 C 32.875 8.378906 33.378906 7.875 34 7.875 C 34.449219 7.875 34.929688 8.140625 35.316406 8.425781 C 35.085938 7.988281 34.875 7.464844 34.875 7 C 34.875 6.378906 35.378906 5.875 36 5.875 Z M 11 6 L 12 6 L 12 9.0625 L 14.625 6 L 15.941406 6 L 13.5 8.851563 L 16.265625 13 L 15.066406 13 L 12.824219 9.640625 L 12 10.601563 L 12 13 L 11 13 Z M 26 11 C 26.460938 11 26.863281 11.316406 26.972656 11.765625 C 27.296875 13.121094 28.183594 15 29 15 C 30.378906 15 31.089844 13.582031 31.097656 13.566406 C 31.296875 13.144531 31.761719 12.917969 32.21875 13.023438 C 32.675781 13.128906 33 13.53125 33 14 L 33 19.765625 L 35.894531 25.550781 C 36.140625 26.046875 35.941406 26.648438 35.449219 26.894531 L 34 27.617188 L 34 31 C 34 31.238281 33.914063 31.476563 33.753906 31.65625 C 33.667969 31.753906 31.660156 34 28 34 C 27.445313 34 27 33.550781 27 33 C 27 32.445313 27.445313 32 28 32 C 30.117188 32 31.472656 31.035156 32 30.578125 L 32 29.699219 C 31.492188 29.886719 30.921875 30 30.332031 30 C 28.488281 30 28 28.847656 28 28.167969 C 28 27.558594 28.628906 27.007813 29.324219 27.007813 C 29.488281 27.007813 29.628906 27.128906 29.65625 27.292969 C 29.679688 27.457031 29.578125 27.613281 29.421875 27.660156 C 29.222656 27.71875 29.253906 27.976563 29.261719 28.003906 C 29.269531 28.058594 29.320313 28.332031 29.605469 28.332031 C 29.875 28.332031 30.328125 28.332031 30.777344 27.78125 C 31.03125 27.371094 31.792969 26.417969 32.546875 26.109375 C 32.550781 26.105469 32.550781 26.105469 32.554688 26.105469 L 33.65625 25.550781 L 31.382813 21 L 29 21 C 27.339844 21.042969 26 22.398438 26 24.070313 L 26 29 C 26 32.855469 22.859375 36 19 36 L 18.171875 36 C 18.101563 36 18.042969 35.980469 17.976563 35.980469 C 17.8125 35.992188 17.648438 36 17.5 36 C 15.566406 36 14 34.429688 14 32.5 C 14 30.566406 15.566406 29 17.5 29 L 18 29 L 18 24 C 18 22.863281 18.378906 21.835938 19 21.007813 C 19 21.003906 19 21 19 21 L 19 14 C 19 13.53125 19.324219 13.128906 19.78125 13.023438 C 20.242188 12.921875 20.703125 13.148438 20.902344 13.566406 C 20.925781 13.621094 21.625 15 23 15 C 23.808594 15 24.714844 13.085938 25.027344 11.765625 C 25.136719 11.316406 25.535156 11 26 11 Z M 26 14.757813 C 25.367188 15.902344 24.394531 17 23 17 C 22.207031 17 21.542969 16.777344 21 16.464844 L 21 19.429688 C 21.632813 19.15625 22.332031 19 23.078125 19 L 31 19 L 31 16.464844 C 30.457031 16.777344 29.792969 17 29 17 C 27.605469 17 26.632813 15.902344 26 14.757813 Z M 30 23 C 30.550781 23 31 23.445313 31 24 C 31 24.550781 30.550781 25 30 25 C 29.449219 25 29 24.550781 29 24 C 29 23.445313 29.449219 23 30 23 Z M 33.734375 37 L 34.933594 37 L 37.175781 40.359375 L 38 39.398438 L 38 37 L 39 37 L 39 44 L 38 44 L 38 40.9375 L 35.375 44 L 34.058594 44 L 36.5 41.152344 Z M 12.8125 38 L 15.171875 38 C 14.980469 38.371094 14.550781 39.671875 14.308594 40.4375 C 14.699219 40.195313 15.34375 39.875 16 39.875 C 16.621094 39.875 17.125 40.378906 17.125 41 C 17.125 41.621094 16.621094 42.125 16 42.125 C 15.535156 42.125 15.082031 41.886719 14.714844 41.621094 C 14.933594 42.039063 15.125 42.53125 15.125 43 C 15.125 43.621094 14.621094 44.125 14 44.125 C 13.378906 44.125 12.875 43.621094 12.875 43 C 12.875 42.535156 13.085938 42.011719 13.316406 41.574219 C 12.929688 41.859375 12.449219 42.125 12 42.125 C 11.378906 42.125 10.875 41.621094 10.875 41 C 10.875 40.378906 11.378906 39.875 12 39.875 C 12.675781 39.875 13.3125 40.199219 13.699219 40.441406 C 13.449219 39.683594 13.007813 38.375 12.8125 38 Z"/></svg>