<?xml version="1.0" encoding="UTF-8"?>
<svg xmlns="http://www.w3.org/2000/svg" xmlns:xlink="http://www.w3.org/1999/xlink" viewBox="0 0 50 50" width="50px" height="50px">
<g id="surface6047868">
<rect x="0" y="0" width="50" height="50" style="fill:rgb(79.607844%,94.509804%,69.803923%);fill-opacity:1;stroke:none;"/>
<path style=" stroke:none;fill-rule:nonzero;fill:rgb(100%,100%,100%);fill-opacity:1;" d="M 37.453125 3.007812 C 37.078125 2.964844 36.707031 3.210938 36.621094 3.632812 C 35.402344 9.53125 30 11.417969 30 17.152344 C 30 21.03125 31.628906 24.125 34.890625 24.980469 C 35.535156 25.148438 36.082031 24.332031 35.644531 23.8125 C 34.792969 22.789062 34 21.539062 34 19.832031 C 34 18.832031 34.289062 17.0625 35.003906 15.832031 C 35.824219 17.378906 37.316406 18.871094 38 18.832031 C 39.480469 18.75 41 15.832031 39.066406 11.050781 C 41.785156 13.433594 43.09375 16.300781 43 18.832031 C 42.925781 20.894531 42 22.832031 41.144531 23.898438 C 40.742188 24.394531 41.355469 25.144531 41.957031 24.976562 C 45.246094 24.042969 47 20.53125 47 17.261719 C 47 13.304688 44.828125 8.15625 37.816406 3.144531 C 37.703125 3.0625 37.578125 3.019531 37.453125 3.007812 Z M 11.316406 3.007812 C 10.703125 3.050781 10.054688 3.261719 9.425781 3.703125 C 9.359375 3.746094 2.917969 8.417969 3.003906 11.039062 C 3.242188 18.523438 10.527344 27.332031 16.59375 33.402344 C 22.664062 39.472656 31.46875 46.757812 38.980469 47 C 38.996094 47 39.011719 47 39.027344 47 C 41.636719 47 46.242188 40.636719 46.285156 40.578125 C 46.808594 39.832031 47.058594 38.976562 46.984375 38.167969 C 46.914062 37.367188 46.546875 36.679688 45.976562 36.277344 C 45.292969 35.800781 37.914062 30.890625 37.019531 30.347656 C 36.140625 29.808594 34.851562 29.890625 33.566406 30.570312 C 32.847656 30.949219 30.636719 32.210938 29.601562 32.800781 C 28.695312 32.164062 26.476562 30.472656 22.996094 26.996094 C 19.519531 23.519531 17.832031 21.300781 17.199219 20.394531 C 17.789062 19.359375 19.046875 17.148438 19.425781 16.429688 C 20.113281 15.125 20.195312 13.828125 19.640625 12.960938 C 19.109375 12.117188 14.226562 4.714844 13.714844 4.003906 C 13.238281 3.347656 12.335938 2.9375 11.316406 3.007812 Z M 11.316406 3.007812 "/>
</g>
</svg>
