<?xml version="1.0" encoding="UTF-8"?>
<svg xmlns="http://www.w3.org/2000/svg" xmlns:xlink="http://www.w3.org/1999/xlink" viewBox="0 0 50 50" width="50px" height="50px">
<g id="surface10157576">
<rect x="0" y="0" width="50" height="50" style="fill:rgb(79.607844%,94.509804%,69.803923%);fill-opacity:1;stroke:none;"/>
<path style=" stroke:none;fill-rule:nonzero;fill:rgb(100%,100%,100%);fill-opacity:1;" d="M 40.574219 46.285156 C 39.832031 46.808594 38.976562 47.058594 38.167969 46.988281 C 37.367188 46.914062 36.679688 46.546875 36.277344 45.976562 C 35.796875 45.289062 30.890625 37.910156 30.347656 37.023438 C 29.804688 36.140625 29.890625 34.851562 30.570312 33.570312 C 30.949219 32.847656 32.210938 30.636719 32.796875 29.605469 C 32.160156 28.695312 30.472656 26.476562 26.996094 22.996094 C 23.519531 19.519531 21.300781 17.835938 20.394531 17.199219 C 19.359375 17.789062 17.148438 19.050781 16.429688 19.425781 C 15.125 20.113281 13.828125 20.195312 12.957031 19.644531 C 12.109375 19.105469 4.699219 14.21875 4.003906 13.714844 C 2.949219 12.953125 2.535156 11.097656 3.703125 9.425781 C 3.746094 9.359375 8.417969 2.917969 11.039062 3.003906 C 18.523438 3.242188 27.332031 10.523438 33.402344 16.59375 C 39.472656 22.664062 46.761719 31.46875 47 38.980469 C 47 38.996094 47 39.015625 47 39.03125 C 47 41.636719 40.640625 46.242188 40.574219 46.285156 Z M 40.574219 46.285156 "/>
</g>
</svg>
