<?xml version="1.0" encoding="UTF-8"?>
<svg xmlns="http://www.w3.org/2000/svg" xmlns:xlink="http://www.w3.org/1999/xlink" viewBox="0 0 50 50" width="50px" height="50px">
<g id="surface11536865">
<path style=" stroke:none;fill-rule:nonzero;fill:rgb(90.588236%,29.803923%,23.529412%);fill-opacity:1;" d="M 10 2 C 8.347656 2 7 3.347656 7 5 L 7 45 C 7 46.652344 8.347656 48 10 48 L 40 48 C 41.652344 48 43 46.652344 43 45 L 43 5 C 43 3.347656 41.652344 2 40 2 Z M 36 5 L 39 9 L 36 13 L 33 9 Z M 12 6 L 16 6 L 16 7 L 15 7 L 15 11 C 15 12.101562 14.101562 13 13 13 C 11.898438 13 11 12.101562 11 11 L 12 11 C 12 11.550781 12.449219 12 13 12 C 13.550781 12 14 11.550781 14 11 L 14 7 L 12 7 Z M 18 15 L 33 15 C 33.347656 15 33.671875 15.179688 33.855469 15.480469 C 34.035156 15.777344 34.046875 16.144531 33.890625 16.453125 L 32.136719 19.890625 L 35.832031 25.445312 C 35.992188 25.683594 36.039062 25.980469 35.96875 26.253906 C 35.894531 26.53125 35.703125 26.765625 35.449219 26.894531 L 34 27.617188 L 34 31 C 34 31.242188 33.914062 31.476562 33.753906 31.65625 C 33.667969 31.753906 31.660156 34 28 34 C 27.445312 34 27 33.550781 27 33 C 27 32.449219 27.445312 32 28 32 C 30.117188 32 31.472656 31.035156 32 30.578125 L 32 27 C 32 26.621094 32.214844 26.277344 32.550781 26.105469 L 33.539062 25.609375 L 30.464844 20.988281 L 29.078125 20.988281 C 27.382812 20.988281 26 22.371094 26 24.070312 L 26 29 C 26 32.859375 22.859375 36 19 36 L 18.171875 36 C 15.945312 36 14.117188 34.335938 14.003906 32.214844 C 13.949219 31.101562 14.335938 30.050781 15.097656 29.246094 C 15.851562 28.453125 16.90625 28 18 28 L 18 24 C 18 22.707031 18.488281 21.558594 19.277344 20.679688 C 19.207031 20.609375 19.152344 20.53125 19.105469 20.4375 L 17.105469 16.449219 C 16.949219 16.136719 16.964844 15.769531 17.148438 15.472656 C 17.332031 15.179688 17.652344 15 18 15 Z M 19.621094 17 L 20.617188 18.992188 L 30.347656 18.992188 L 31.363281 17 Z M 23.078125 20.992188 C 21.351562 20.992188 20 22.3125 20 24 L 20 29 C 20 29.550781 19.554688 30 19 30 L 18 30 C 17.445312 30 16.933594 30.21875 16.550781 30.625 C 16.167969 31.023438 15.976562 31.550781 16.003906 32.109375 C 16.058594 33.152344 17.027344 34 18.171875 34 L 19 34 C 21.757812 34 24 31.757812 24 29 L 24 24.074219 C 24 22.910156 24.410156 21.851562 25.066406 20.992188 Z M 30 23 C 30.550781 23 31 23.449219 31 24 C 31 24.550781 30.550781 25 30 25 C 29.449219 25 29 24.550781 29 24 C 29 23.449219 29.449219 23 30 23 Z M 14 37 L 17 41 L 14 45 L 11 41 Z M 37 37 C 38.101562 37 39 37.898438 39 39 L 38 39 C 38 38.449219 37.550781 38 37 38 C 36.449219 38 36 38.449219 36 39 L 36 43 L 38 43 L 38 44 L 34 44 L 34 43 L 35 43 L 35 39 C 35 37.898438 35.898438 37 37 37 Z M 37 37 "/>
</g>
</svg>
