<?xml version="1.0" encoding="UTF-8"?>
<svg xmlns="http://www.w3.org/2000/svg" xmlns:xlink="http://www.w3.org/1999/xlink" viewBox="0 0 50 50" width="50px" height="50px">
<g id="surface11541772">
<path style=" stroke:none;fill-rule:nonzero;fill:rgb(0%,0%,0%);fill-opacity:1;" d="M 10 2 C 8.347656 2 7 3.347656 7 5 L 7 45 C 7 46.652344 8.347656 48 10 48 L 40 48 C 41.652344 48 43 46.652344 43 45 L 43 5 C 43 3.347656 41.652344 2 40 2 Z M 36 5.875 C 36.621094 5.875 37.125 6.378906 37.125 7 C 37.125 7.46875 36.933594 7.960938 36.714844 8.382812 C 37.082031 8.113281 37.535156 7.875 38 7.875 C 38.621094 7.875 39.125 8.378906 39.125 9 C 39.125 9.621094 38.621094 10.125 38 10.125 C 37.34375 10.125 36.699219 9.804688 36.308594 9.5625 C 36.550781 10.328125 36.980469 11.628906 37.171875 12 L 34.8125 12 C 35.007812 11.628906 35.449219 10.316406 35.703125 9.554688 C 35.3125 9.800781 34.675781 10.125 34 10.125 C 33.382812 10.125 32.875 9.621094 32.875 9 C 32.875 8.378906 33.378906 7.875 34 7.875 C 34.449219 7.875 34.929688 8.140625 35.316406 8.425781 C 35.085938 7.988281 34.875 7.464844 34.875 7 C 34.875 6.378906 35.378906 5.875 36 5.875 Z M 12 6 L 16 6 L 16 7 L 15 7 L 15 11 C 15 12.101562 14.101562 13 13 13 C 11.898438 13 11 12.101562 11 11 L 12 11 C 12 11.550781 12.449219 12 13 12 C 13.550781 12 14 11.550781 14 11 L 14 7 L 12 7 Z M 18 15 L 33 15 C 33.347656 15 33.667969 15.179688 33.851562 15.472656 C 34.035156 15.769531 34.050781 16.136719 33.894531 16.449219 L 32.15625 19.925781 L 35.832031 25.449219 C 35.992188 25.683594 36.042969 25.980469 35.96875 26.257812 C 35.894531 26.535156 35.703125 26.769531 35.449219 26.894531 L 34 27.617188 L 34 31 C 34 31.242188 33.914062 31.476562 33.753906 31.65625 C 33.667969 31.753906 31.660156 34 28 34 C 27.445312 34 27 33.554688 27 33 C 27 32.445312 27.445312 32 28 32 C 30.117188 32 31.472656 31.039062 32 30.578125 L 32 27 C 32 26.621094 32.214844 26.277344 32.550781 26.105469 L 33.539062 25.609375 L 30.46875 21 L 29 21 C 27.339844 21.042969 26 22.398438 26 24.070312 L 26 29 C 26 32.859375 22.859375 36 19 36 L 18.171875 36 C 18.101562 36 18.042969 35.980469 17.976562 35.980469 C 17.8125 35.992188 17.648438 36 17.5 36 C 15.566406 36 14 34.433594 14 32.5 C 14 30.566406 15.566406 29 17.5 29 L 18 29 L 18 24 C 18 22.710938 18.488281 21.5625 19.273438 20.683594 C 19.207031 20.613281 19.152344 20.535156 19.105469 20.449219 L 17.105469 16.449219 C 16.949219 16.136719 16.964844 15.769531 17.148438 15.472656 C 17.332031 15.179688 17.652344 15 18 15 Z M 19.617188 17 L 20.617188 19 L 30.382812 19 L 31.382812 17 Z M 30 23 C 30.550781 23 31 23.449219 31 24 C 31 24.550781 30.550781 25 30 25 C 29.449219 25 29 24.550781 29 24 C 29 23.449219 29.449219 23 30 23 Z M 37 37 C 38.101562 37 39 37.898438 39 39 L 38 39 C 38 38.449219 37.550781 38 37 38 C 36.449219 38 36 38.449219 36 39 L 36 43 L 38 43 L 38 44 L 34 44 L 34 43 L 35 43 L 35 39 C 35 37.898438 35.898438 37 37 37 Z M 12.8125 38 L 15.171875 38 C 14.980469 38.371094 14.550781 39.671875 14.308594 40.4375 C 14.699219 40.195312 15.34375 39.875 16 39.875 C 16.621094 39.875 17.125 40.378906 17.125 41 C 17.125 41.621094 16.621094 42.125 16 42.125 C 15.535156 42.125 15.082031 41.886719 14.714844 41.621094 C 14.933594 42.039062 15.125 42.53125 15.125 43 C 15.125 43.621094 14.621094 44.125 14 44.125 C 13.378906 44.125 12.875 43.621094 12.875 43 C 12.875 42.535156 13.085938 42.011719 13.316406 41.574219 C 12.929688 41.859375 12.449219 42.125 12 42.125 C 11.378906 42.125 10.875 41.621094 10.875 41 C 10.875 40.378906 11.378906 39.875 12 39.875 C 12.675781 39.875 13.3125 40.199219 13.699219 40.441406 C 13.449219 39.683594 13.007812 38.375 12.8125 38 Z M 12.8125 38 "/>
</g>
</svg>
